HIERARCHY
ROOT Hips
{
	OFFSET 0.00 0.00 0.00
	CHANNELS 6 Xposition Yposition Zposition Xrotation Yrotation Zrotation
	JOINT Spine
	{
		OFFSET 0.00000 1.72418 2.58627
		CHANNELS 3 Xrotation Yrotation Zrotation
		JOINT Spine1
		{
			OFFSET 0.00000 0.59880 3.39597
			CHANNELS 3 Xrotation Yrotation Zrotation
			JOINT Spine2
			{
				OFFSET 0.00000 0.30055 3.43524
				CHANNELS 3 Xrotation Yrotation Zrotation
				JOINT Spine3
				{
					OFFSET 0.00000 0.00000 3.44836
					CHANNELS 3 Xrotation Yrotation Zrotation
					JOINT Neck
					{
						OFFSET 0.00000 -1.29313 9.05195
						CHANNELS 3 Xrotation Yrotation Zrotation
						JOINT Head
						{
							OFFSET 0.00000 -0.82335 4.66946
							CHANNELS 3 Xrotation Yrotation Zrotation
							End Site
							{
								OFFSET 0.00000 0.00001 5.58203
							}
						}
					}
					JOINT RightShoulder
					{
						OFFSET -1.18828 -1.98046 6.41673
						CHANNELS 3 Xrotation Yrotation Zrotation
						JOINT RightArm
						{
							OFFSET -5.90180 0.00000 0.00000
							CHANNELS 3 Xrotation Yrotation Zrotation
							JOINT RightForeArm
							{
								OFFSET -11.45951 0.00000 0.00000
								CHANNELS 3 Xrotation Yrotation Zrotation
								JOINT RightHand
								{
									OFFSET -10.63451 0.00000 0.00000
									CHANNELS 3 Xrotation Yrotation Zrotation
									JOINT RightHandEnd
									{
										OFFSET -2.86944 0.00000 0.00000
										CHANNELS 3 Xrotation Yrotation Zrotation
										End Site
										{
											OFFSET -2.86944 0.00000 0.00000
										}
									}
									JOINT RightHandThumb1
									{
										OFFSET -1.14778 -1.91296 -0.76518
										CHANNELS 3 Yrotation Xrotation Zrotation
										End Site
										{
											OFFSET -2.77167 -0.74267 0.00000
										}
									}
								}
							}
						}
					}
					JOINT LeftShoulder
					{
						OFFSET 1.18828 -1.98046 6.41673
						CHANNELS 3 Xrotation Yrotation Zrotation
						JOINT LeftArm
						{
							OFFSET 5.90180 0.00000 0.00000
							CHANNELS 3 Xrotation Yrotation Zrotation
							JOINT LeftForeArm
							{
								OFFSET 11.45951 0.00000 0.00000
								CHANNELS 3 Xrotation Yrotation Zrotation
								JOINT LeftHand
								{
									OFFSET 10.63451 0.00000 0.00000
									CHANNELS 3 Xrotation Yrotation Zrotation
									JOINT LeftHandEnd
									{
										OFFSET 2.86944 0.00000 0.00000
										CHANNELS 3 Xrotation Yrotation Zrotation
										End Site
										{
											OFFSET 2.86944 0.00000 0.00000
										}
									}
									JOINT LeftHandThumb1
									{
										OFFSET 1.14778 -1.91296 -0.76518
										CHANNELS 3 Yrotation Xrotation Zrotation
										End Site
										{
											OFFSET 2.77167 -0.74267 0.00000
										}
									}
								}
							}
						}
					}
				}
			}
		}
	}
	JOINT RightUpLeg
	{
		OFFSET -3.52524 0.00000 -1.02984
		CHANNELS 3 Xrotation Yrotation Zrotation
		JOINT RightLeg
		{
			OFFSET 0.00001 0.00000 -17.80965
			CHANNELS 3 Xrotation Yrotation Zrotation
			JOINT RightFoot
			{
				OFFSET 0.00001 0.00000 -17.00908
				CHANNELS 3 Xrotation Yrotation Zrotation
				JOINT RightToeBase
				{
					OFFSET 0.00000 -5.55853 -2.02314
					CHANNELS 3 Xrotation Yrotation Zrotation
					End Site
					{
						OFFSET 0.00000 -2.85188 -0.00000
					}
				}
			}
		}
	}
	JOINT LeftUpLeg
	{
		OFFSET 3.52524 0.00000 -1.02984
		CHANNELS 3 Xrotation Yrotation Zrotation
		JOINT LeftLeg
		{
			OFFSET 0.00001 0.00000 -17.80965
			CHANNELS 3 Xrotation Yrotation Zrotation
			JOINT LeftFoot
			{
				OFFSET 0.00001 0.00000 -17.00908
				CHANNELS 3 Xrotation Yrotation Zrotation
				JOINT LeftToeBase
				{
					OFFSET 0.00000 -5.55853 -2.02314
					CHANNELS 3 Xrotation Yrotation Zrotation
					End Site
					{
						OFFSET 0.00000 -2.85188 -0.00000
					}
				}
			}
		}
	}
}
MOTION
Frames: 12
Frame Time:	0.0333333
 -2.0903 -104.9608 36.5335 -2.0875 1.0800 -178.4402 -1.3993 0.4449 -0.4292 -0.8862 0.3602 0.0157 5.9743 -1.1600 -0.5673 1.6985 -0.2213 0.3128 1.5367 0.3501 -0.6769 -0.3616 1.2907 -0.1670 17.3186 -16.6381 3.1058 36.4906 -23.6704 33.0170 -0.0000 0.0000 40.2991 -0.9604 11.3898 3.7313 0.0000 0.0000 0.0000 0.0000 0.0000 0.0000 21.4573 12.7419 -5.3736 30.3202 31.4814 -26.7300 -0.0000 -0.0000 -56.6017 9.9766 -5.1732 -5.8809 0.0000 -0.0000 -0.0000 -0.0000 0.0000 -0.0000 -5.8062 6.9162 -29.5293 15.9961 0.0000 0.0000 -11.6930 -2.7923 2.2852 -0.8895 0.0000 -0.0000 -2.5104 -2.9331 14.9968 11.3468 0.0000 0.0000 -10.1804 4.3535 4.5150 0.3422 0.0000 0.0000
 -2.0834 -104.9794 36.5249 -2.1217 1.1297 -178.4985 -1.4064 0.4857 -0.4324 -0.8894 0.3746 0.0112 5.9532 -1.2795 -0.6178 1.6880 -0.2489 0.3270 1.6199 0.3066 -0.6848 -0.3227 1.3124 -0.1686 17.1349 -17.1094 2.9002 35.6451 -24.4256 32.7678 -0.0000 0.0000 39.6227 -1.4756 12.8664 3.5106 -0.0000 0.0000 -0.0000 0.0000 -0.0000 -0.0000 21.1647 13.0188 -5.3224 29.4173 32.1815 -26.6437 -0.0000 -0.0000 -55.4578 10.6661 -6.4103 -5.1099 0.0000 0.0000 0.0000 0.0000 -0.0000 0.0000 -5.9702 6.9771 -29.2776 16.1827 0.0000 0.0000 -11.8272 -2.7516 2.1403 -0.8545 0.0000 -0.0000 -2.5242 -2.8997 15.0431 11.2842 0.0000 0.0000 -10.1978 4.3556 4.4335 0.3739 0.0000 0.0000
 -2.0770 -104.9997 36.5152 -2.1769 1.2254 -178.5069 -1.4128 0.5586 -0.4348 -0.8902 0.3862 0.0033 5.9078 -1.3801 -0.7019 1.6764 -0.2712 0.3239 1.6377 0.2837 -0.6714 -0.2506 1.3164 -0.1190 16.9633 -17.2959 2.8055 35.1610 -24.9737 32.7199 -0.0000 0.0000 38.7056 -2.1416 14.4278 3.1714 0.0000 -0.0000 0.0000 0.0000 0.0000 -0.0000 20.8750 13.1353 -5.3220 28.4574 32.9287 -26.6440 -0.0000 -0.0000 -53.9644 11.1028 -7.3492 -4.5138 -0.0000 -0.0000 0.0000 -0.0000 0.0000 0.0000 -6.2009 7.1018 -28.9484 16.4784 0.0000 0.0000 -12.0212 -2.6842 1.8827 -0.8233 0.0000 -0.0000 -2.5693 -2.8137 15.0504 11.2235 0.0000 0.0000 -10.2019 4.3287 4.3535 0.3921 0.0000 0.0000
 -2.0693 -105.0215 36.5037 -2.2374 1.3784 -178.4976 -1.4073 0.6619 -0.4378 -0.8855 0.3950 -0.0000 5.8420 -1.4368 -0.7987 1.6644 -0.2889 0.3118 1.6269 0.2650 -0.6344 -0.1770 1.3107 -0.0299 16.8232 -17.2730 2.7927 34.9558 -25.3086 32.8029 0.0000 0.0000 37.7775 -2.6567 15.3743 2.7353 0.0000 0.0000 0.0000 0.0000 -0.0000 -0.0000 20.6384 13.1255 -5.4387 27.5273 33.6205 -26.6512 -0.0000 -0.0000 -52.3650 10.8762 -7.8762 -3.9103 0.0000 -0.0000 0.0000 -0.0000 0.0000 -0.0000 -6.5308 7.2975 -28.4221 16.9563 0.0000 0.0000 -12.2837 -2.5745 1.4197 -0.8184 0.0000 -0.0000 -2.6345 -2.6693 15.0430 11.1788 0.0000 0.0000 -10.1958 4.3349 4.2940 0.4079 0.0000 0.0000
 -2.0566 -105.0453 36.4883 -2.2868 1.5872 -178.4908 -1.3791 0.7990 -0.4357 -0.8723 0.3990 -0.0040 5.7935 -1.4530 -0.8679 1.6509 -0.2951 0.2945 1.5605 0.2370 -0.6012 -0.1625 1.3065 0.0635 16.7525 -17.1823 2.8145 34.8208 -25.4287 32.8790 0.0000 0.0000 36.9648 -2.7753 15.4653 2.4140 0.0000 -0.0000 0.0000 -0.0000 0.0000 0.0000 20.4283 13.0713 -5.6521 26.7969 34.0468 -26.7036 -0.0000 -0.0000 -50.8031 10.2503 -8.1589 -3.3820 -0.0000 -0.0000 0.0000 0.0000 -0.0000 0.0000 -6.9565 7.5522 -27.6667 17.6280 0.0000 0.0000 -12.6327 -2.4352 0.7434 -0.8301 0.0000 -0.0000 -2.7105 -2.4820 15.0472 11.1732 0.0000 0.0000 -10.1879 4.3936 4.2452 0.4221 0.0000 0.0000
 -2.0351 -105.0683 36.4680 -2.3186 1.8426 -178.4743 -1.3258 0.9722 -0.4317 -0.8487 0.4025 -0.0079 5.7817 -1.4406 -0.9279 1.6393 -0.2907 0.2761 1.4245 0.2032 -0.5946 -0.2055 1.2910 0.1535 16.7091 -17.0925 2.8590 34.7001 -25.3853 32.8783 0.0000 0.0000 36.2793 -2.8301 15.0429 2.3149 0.0000 0.0000 0.0000 -0.0000 0.0000 0.0000 20.2260 13.0147 -5.8987 26.3592 34.1375 -26.8525 -0.0000 -0.0000 -49.3678 9.5921 -8.4277 -3.2042 0.0000 -0.0000 -0.0000 -0.0000 0.0000 -0.0000 -7.4315 7.8504 -26.8068 18.4386 0.0000 0.0000 -13.0713 -2.2876 -0.0298 -0.8393 0.0000 -0.0000 -2.7890 -2.2686 15.0739 11.2158 0.0000 0.0000 -10.1905 4.4306 4.1837 0.4350 0.0000 0.0000
 -2.0026 -105.0858 36.4447 -2.3355 2.1397 -178.4437 -1.2582 1.1794 -0.4276 -0.8246 0.4099 -0.0104 5.8023 -1.4016 -1.0063 1.6389 -0.2796 0.2522 1.2771 0.1708 -0.6078 -0.2543 1.2620 0.2389 16.6905 -16.9970 2.9604 34.5987 -25.2449 32.8133 0.0000 0.0000 35.7156 -3.2152 14.5525 2.3453 -0.0000 -0.0000 -0.0000 -0.0000 0.0000 0.0000 20.0869 12.9439 -6.1559 26.1558 33.9669 -27.0723 -0.0000 -0.0000 -48.1681 9.0511 -8.7666 -3.3371 0.0000 -0.0000 -0.0000 0.0000 0.0000 -0.0000 -7.9194 8.1845 -25.9665 19.3363 0.0000 0.0000 -13.5687 -2.1337 -0.7880 -0.8400 0.0000 -0.0000 -2.8586 -2.0329 15.1032 11.2883 0.0000 0.0000 -10.2084 4.4501 4.1255 0.4507 0.0000 0.0000
 -1.9553 -105.0951 36.4208 -2.3276 2.4425 -178.4184 -1.1795 1.3838 -0.4234 -0.8037 0.4194 -0.0088 5.8561 -1.3355 -1.0918 1.6541 -0.2658 0.2247 1.1734 0.1440 -0.6237 -0.2843 1.2445 0.3011 16.7328 -16.8634 3.1050 34.4449 -25.1054 32.7364 0.0000 0.0000 35.2603 -3.7980 14.2079 2.3781 -0.0000 -0.0000 0.0000 -0.0000 -0.0000 0.0000 20.0192 12.8350 -6.4223 26.0980 33.6568 -27.3072 -0.0000 -0.0000 -47.3060 8.6868 -9.0365 -3.4317 -0.0000 0.0000 -0.0000 0.0000 -0.0000 -0.0000 -8.3843 8.4961 -25.1612 20.2560 0.0000 0.0000 -14.0588 -1.9678 -1.5239 -0.8440 0.0000 -0.0000 -2.9087 -1.8194 15.1278 11.3936 0.0000 0.0000 -10.2331 4.5685 4.0879 0.4520 0.0000 0.0000
 -1.8890 -105.0975 36.3983 -2.3050 2.6945 -178.4148 -1.0995 1.5402 -0.4191 -0.7794 0.4222 -0.0105 5.9505 -1.2575 -1.1458 1.6786 -0.2471 0.1947 1.0948 0.1286 -0.6332 -0.3164 1.2516 0.3314 16.7997 -16.6839 3.2329 34.1728 -25.0655 32.6641 0.0000 0.0000 34.8878 -4.2083 14.0749 2.3796 -0.0000 0.0000 -0.0000 0.0000 -0.0000 -0.0000 19.9588 12.6997 -6.6705 26.0911 33.3253 -27.5007 -0.0000 -0.0000 -46.8241 8.5529 -9.0310 -3.3249 0.0000 -0.0000 -0.0000 -0.0000 0.0000 -0.0000 -8.7958 8.6998 -24.3986 21.0942 0.0000 0.0000 -14.4890 -1.7940 -2.2303 -0.8733 0.0000 -0.0000 -2.9714 -1.6993 15.1528 11.5742 0.0000 0.0000 -10.2579 4.7722 4.0739 0.4056 0.0000 0.0000
 -1.8019 -105.0925 36.3791 -2.2559 2.8639 -178.4177 -0.9926 1.6279 -0.4147 -0.7421 0.4191 -0.0141 6.0697 -1.1861 -1.1846 1.7068 -0.2226 0.1661 0.9997 0.1234 -0.6428 -0.3636 1.2722 0.3571 16.8227 -16.4984 3.3053 33.8295 -25.0999 32.5790 0.0000 0.0000 34.6011 -4.4188 14.1502 2.3778 0.0000 -0.0000 0.0000 0.0000 0.0000 0.0000 19.9051 12.5614 -6.8633 26.0261 33.0507 -27.6357 -0.0000 -0.0000 -46.6843 8.5858 -8.7850 -3.1677 0.0000 0.0000 -0.0000 0.0000 0.0000 0.0000 -9.0738 8.7576 -23.7764 21.7388 0.0000 0.0000 -14.8433 -1.6261 -2.8173 -0.9289 0.0000 -0.0000 -3.0276 -1.6986 15.1281 11.8149 0.0000 0.0000 -10.2923 4.9061 4.1181 0.3258 0.0000 0.0000
 -1.6973 -105.0812 36.3645 -2.2462 2.9829 -178.4038 -0.9038 1.6790 -0.4128 -0.7208 0.4016 -0.0147 6.2001 -1.1083 -1.2385 1.7363 -0.1977 0.1429 0.9103 0.1345 -0.6551 -0.4141 1.2880 0.4032 16.8136 -16.3606 3.3554 33.4885 -25.1000 32.4425 0.0000 0.0000 34.4203 -4.6702 14.3294 2.4246 0.0000 0.0000 0.0000 0.0000 0.0000 -0.0000 19.8819 12.4430 -7.0319 25.8767 32.8648 -27.6816 -0.0000 -0.0000 -46.7985 8.6028 -8.5745 -3.1411 -0.0000 -0.0000 0.0000 0.0000 -0.0000 -0.0000 -9.2833 8.7289 -23.3396 22.2033 0.0000 0.0000 -15.1349 -1.4751 -3.2417 -0.9671 0.0000 -0.0000 -3.1210 -1.7548 14.9362 12.0474 0.0000 0.0000 -10.3384 4.9666 4.3251 0.2784 0.0000 0.0000
 -1.5777 -105.0631 36.3547 -2.2979 3.0581 -178.3794 -0.8642 1.6810 -0.4070 -0.7074 0.4020 -0.0148 6.3040 -1.0455 -1.2882 1.7680 -0.1670 0.1159 0.8734 0.1653 -0.6585 -0.4458 1.3063 0.4593 16.8264 -16.2681 3.4051 33.1869 -25.0159 32.2797 0.0000 0.0000 34.3149 -5.0056 14.4544 2.5176 -0.0000 0.0000 -0.0000 -0.0000 -0.0000 0.0000 19.8924 12.3328 -7.1871 25.7316 32.7560 -27.7213 -0.0000 -0.0000 -47.0310 8.4967 -8.5667 -3.2360 -0.0000 -0.0000 0.0000 0.0000 -0.0000 0.0000 -9.4850 8.6281 -23.0194 22.5485 0.0000 0.0000 -15.3604 -1.3413 -3.5778 -0.9615 0.0000 -0.0000 -3.2531 -1.8550 14.6155 12.2255 0.0000 0.0000 -10.3653 5.0924 4.6707 0.2811 0.0000 0.0000
